<svg width="627" height="589" viewBox="0 0 627 589" fill="none" xmlns="http://www.w3.org/2000/svg">
<path d="M572.907 4.29407H84.458V583.752H572.907V4.29407Z" fill="#C0D9E6"/>
<path d="M571.901 0H83.6536H79.6318V4.77116V584.229V589H83.6536H572.102H576.124V584.229V4.77116V0H571.901ZM567.879 579.458H478.394V473.299H567.879V579.458ZM87.6755 9.54233H177.161V115.701H87.6755V9.54233ZM567.879 231.878H478.394V125.482H567.879V231.878ZM470.15 231.878H380.664V125.482H470.15V231.878ZM274.891 231.878H185.405V125.482H274.891V231.878ZM282.934 125.482H372.42V231.64H282.934V125.482ZM274.891 241.421V347.579H185.405V241.421H274.891ZM282.934 241.421H372.42V347.579H282.934V241.421ZM372.621 357.36V463.518H283.135V357.36H372.621ZM380.664 357.36H470.15V463.518H380.664V357.36ZM380.664 347.579V241.421H470.15V347.579H380.664ZM380.664 115.939V9.54233H470.15V115.701H380.664V115.939ZM372.621 115.939H283.135V9.54233H372.621V115.939ZM274.891 115.939H185.405V9.54233H274.891V115.939ZM87.6755 125.482H177.161V231.64H87.6755V125.482ZM87.6755 241.421H177.161V347.579H87.6755V241.421ZM87.6755 357.36H177.161V463.518H87.6755V357.36ZM185.405 357.36H274.891V463.518H185.405V357.36ZM274.891 473.061V579.219H185.405V473.061H274.891ZM282.934 473.061H372.42V579.219H282.934V473.061ZM380.664 473.061H470.15V579.219H380.664V473.061ZM567.879 463.518H478.394V357.36H567.879V463.518ZM478.394 347.579V241.421H567.879V347.579H478.394ZM567.879 115.939H478.394V9.54233H567.879V115.939ZM87.6755 473.061H177.161V579.219H87.6755V473.061Z" fill="#87A9BC"/>
<path d="M211.346 381.693C211.346 450.875 164.09 507.175 105.572 507.175C47.2563 506.936 0 450.875 0 381.693C0 312.511 47.2563 256.211 105.774 256.211C164.09 256.211 211.346 312.273 211.346 381.693Z" fill="#4A8ECC"/>
<path d="M182.389 381.693C182.389 431.79 148.003 472.584 105.774 472.584C63.3436 472.584 29.1582 431.79 29.1582 381.693C29.1582 331.357 63.5447 290.802 105.774 290.802C148.003 290.802 182.389 331.357 182.389 381.693Z" fill="white"/>
<path d="M105.774 303.684C141.97 303.684 171.53 338.752 171.53 381.693C171.53 424.633 141.97 459.701 105.774 459.701C69.5773 459.701 40.017 424.633 40.017 381.693C40.017 338.514 69.3762 303.684 105.774 303.684ZM105.774 297.005C66.3599 297.005 34.3865 334.936 34.3865 381.693C34.3865 428.45 66.3599 466.381 105.774 466.381C145.187 466.381 177.161 428.45 177.161 381.693C177.161 334.936 145.187 297.005 105.774 297.005Z" fill="#4A8ECC"/>
<path d="M105.774 278.159C142.975 278.397 168.112 294.858 168.112 294.858C168.112 294.858 144.986 264.322 105.975 265.038C64.9523 265.754 43.6367 294.381 43.6367 294.381C43.6367 294.381 68.773 278.159 105.774 278.159Z" fill="#33A3DC"/>
<path d="M392.328 235.934C392.328 314.897 338.234 379.069 271.673 379.069C204.911 379.069 151.019 314.897 151.019 235.934C151.019 156.733 205.112 92.7991 271.673 92.7991C338.435 92.7991 392.328 156.971 392.328 235.934Z" fill="#EE2D67"/>
<path d="M359.148 235.934C359.148 293.188 319.935 339.707 271.673 339.707C223.412 339.707 184.199 293.188 184.199 235.934C184.199 178.68 223.412 132.161 271.673 132.161C320.136 132.161 359.148 178.68 359.148 235.934Z" fill="white"/>
<path d="M271.673 146.952C313.098 146.952 346.68 187.03 346.68 235.934C346.68 285.077 312.897 324.916 271.673 324.916C230.249 324.916 196.667 284.838 196.667 235.934C196.667 186.791 230.249 146.952 271.673 146.952ZM271.673 139.318C226.629 139.318 190.232 182.497 190.232 235.934C190.232 289.371 226.629 332.55 271.673 332.55C316.718 332.55 353.115 289.371 353.115 235.934C353.115 182.497 316.718 139.318 271.673 139.318Z" fill="#EE2D67"/>
<path d="M271.874 118.086C314.304 118.325 343.06 137.171 343.06 137.171C343.06 137.171 316.718 102.341 272.075 103.057C225.221 103.773 200.889 136.455 200.889 136.455C200.889 136.455 229.645 117.848 271.874 118.086Z" fill="#F37E8F"/>
<path d="M627 188.938C627 274.58 568.483 344.239 496.09 344.239C423.899 344.239 365.18 274.819 365.18 188.938C365.18 103.296 423.698 33.6367 496.09 33.6367C568.483 33.8752 627 103.296 627 188.938Z" fill="#54B04E"/>
<path d="M591.005 188.938C591.005 250.963 548.575 301.537 496.09 301.537C443.806 301.537 401.175 251.202 401.175 188.938C401.175 126.674 443.605 76.3386 496.09 76.3386C548.575 76.5771 591.005 126.913 591.005 188.938Z" fill="white"/>
<path d="M496.09 92.5605C540.933 92.5605 577.532 135.978 577.532 189.177C577.532 242.375 540.933 285.793 496.09 285.793C451.247 285.793 414.648 242.375 414.648 189.177C414.85 135.739 451.247 92.5605 496.09 92.5605ZM496.09 84.2109C447.225 84.2109 407.811 131.207 407.811 188.938C407.811 246.908 447.426 293.665 496.09 293.665C544.754 293.665 584.369 246.669 584.369 188.938C584.57 131.207 544.955 84.2109 496.09 84.2109Z" fill="#54B04E"/>
<path d="M496.291 61.0709C542.341 61.3095 573.309 81.8255 573.309 81.8255C573.309 81.8255 544.754 44.1333 496.291 44.8489C445.415 45.8032 419.073 81.1098 419.073 81.1098C419.073 81.1098 450.644 60.8323 496.291 61.0709Z" fill="#8CC747"/>
<path d="M99.3387 496.917L101.551 492.384C109.192 476.878 117.437 461.61 126.285 447.058C138.35 427.496 149.209 423.202 156.046 423.202C161.878 423.202 167.106 426.065 170.927 431.552C175.15 437.277 176.96 444.434 176.557 452.306C177.563 452.068 178.769 452.068 179.775 452.068C186.21 452.068 192.242 455.646 196.868 461.849C206.922 476.162 204.71 497.394 191.438 514.331C182.791 525.782 174.547 537.71 166.905 550.354L163.889 555.363L99.3387 496.917ZM166.503 498.109C167.508 495.962 167.508 494.531 166.905 494.054C166.905 494.054 166.704 493.815 166.503 493.815C166.302 493.815 165.497 494.292 164.291 495.724L166.503 498.109ZM144.986 474.731C145.388 473.538 145.388 472.822 145.388 472.106C144.986 472.345 144.584 472.822 143.981 473.538L144.986 474.731Z" fill="black"/>
<path d="M157.454 402.209L160.068 398.392C167.307 387.896 174.949 377.876 182.791 368.095L187.014 362.847L243.319 459.463L239.901 463.042C233.064 469.96 226.428 477.116 220.194 484.512L216.172 489.283L157.454 402.209Z" fill="black"/>
<path d="M193.449 359.746L196.868 356.406C205.112 348.056 213.558 340.184 222.205 332.55L224.618 330.403L227.232 331.834C237.689 337.321 248.146 343.762 258.602 350.68L243.923 315.135L247.341 312.034C255.787 304.639 264.836 297.482 273.684 290.802L278.711 286.985L323.555 409.843L318.527 411.99C310.685 415.568 302.842 419.385 295.201 423.679L292.587 425.111L290.174 423.202C280.722 415.33 270.869 407.934 261.016 401.255L276.701 434.176L272.88 437.277C265.842 443.003 258.804 448.966 252.168 455.169L247.744 459.224L193.449 359.746Z" fill="black"/>
<path d="M359.349 398.631C329.587 398.631 309.277 371.674 301.032 348.533C295.201 332.312 295.402 314.181 301.636 297.243C308.473 279.113 321.343 265.038 337.229 258.597C342.658 256.45 348.088 255.257 353.517 255.257C362.767 255.257 370.208 258.358 375.235 260.505L381.267 262.891L379.86 268.378C376.843 280.067 374.028 291.995 371.414 303.446C375.436 302.253 379.458 301.299 383.479 300.345L388.105 299.152L405.398 375.729L402.985 378.115C394.539 387.18 383.479 393.382 371.213 396.484C367.191 398.154 363.169 398.631 359.349 398.631ZM357.137 350.203C357.941 350.203 358.745 349.965 359.751 349.965L359.55 349.488C359.55 349.488 357.941 349.965 357.137 350.203ZM354.321 304.877C352.512 304.877 350.702 305.116 349.093 305.832C345.272 307.263 342.256 310.126 340.647 314.181C338.435 319.429 338.435 326.586 340.446 333.504C341.049 335.651 342.256 338.753 344.066 341.854C343.261 333.981 342.658 325.87 342.055 318.237L341.653 313.227L345.674 311.795C350.903 309.887 356.332 308.217 361.561 306.547C359.148 305.354 356.734 304.877 354.321 304.877Z" fill="black"/>
<path d="M461.905 388.611C461.1 388.611 460.296 388.611 459.291 388.611C428.725 386.464 399.165 356.406 390.518 318.714C385.893 298.198 388.708 276.966 398.561 260.505C407.61 245.238 421.285 235.934 436.97 234.264C438.377 234.026 439.785 234.026 441.394 234.026C473.769 234.026 503.329 269.809 507.351 313.943C509.563 337.083 504.938 357.599 494.481 371.435C486.237 382.647 474.573 388.611 461.905 388.611ZM444.008 286.27C440.187 286.508 436.97 288.417 434.557 292.234C431.339 297.005 430.334 304.162 431.741 311.557C434.154 325.393 444.008 336.606 453.459 336.606C456.878 336.606 459.894 334.936 461.905 332.073C465.122 327.54 466.329 320.622 465.323 312.511C463.514 298.198 454.062 286.27 444.611 286.27C444.611 286.27 444.209 286.27 444.008 286.27Z" fill="black"/>
<path d="M534.096 400.301C527.862 389.565 521.428 378.83 514.792 368.572L512.378 364.994L514.792 361.416C519.014 354.736 523.438 348.056 528.064 341.615C525.65 341.377 523.036 340.9 520.623 340.661L516.601 340.184L515.998 335.413C511.976 303.207 507.955 271.479 503.933 240.705L502.927 233.548L508.96 233.787C520.824 234.264 532.89 235.218 544.553 236.888L548.977 237.604L549.178 242.852C549.982 275.058 550.988 307.024 551.792 338.275L551.993 345.671L545.961 344.478C544.553 344.239 542.944 344.001 541.537 343.762C547.167 352.828 552.597 362.37 558.026 371.912L560.238 375.729L557.825 379.069C552.597 386.226 547.569 393.621 542.542 401.016L538.319 407.457L534.096 400.301Z" fill="black"/>
<path d="M166.503 487.613C164.693 487.613 162.28 488.806 159.666 492.623C158.861 493.815 158.057 495.008 157.253 496.201C160.47 499.779 163.688 503.358 166.905 506.697C167.709 505.505 168.514 504.55 169.117 503.358C173.943 496.439 171.731 491.43 170.122 489.521C170.122 489.521 168.715 487.613 166.503 487.613Z" fill="white"/>
<path d="M145.791 465.904C143.579 465.904 141.367 467.812 139.155 471.152C138.551 472.107 137.948 473.299 137.144 474.254C139.959 477.355 142.975 480.456 145.791 483.796C146.595 482.603 147.399 481.41 148.003 480.218C151.22 475.208 151.019 470.198 148.606 467.574C148.003 466.381 146.796 465.904 145.791 465.904Z" fill="white"/>
<path d="M444.611 280.306C444.209 280.306 444.008 280.306 443.606 280.306C431.138 281.022 423.497 295.812 426.714 312.75C429.73 329.449 441.595 342.331 453.258 342.57H453.459C465.122 342.57 472.563 328.972 470.351 311.796C468.34 294.619 456.878 280.306 444.611 280.306ZM458.084 328.256C456.878 329.926 455.47 330.642 453.66 330.642C447.426 330.642 438.98 322.292 436.768 310.364C435.763 304.877 436.567 299.391 438.578 296.051C439.986 293.904 441.997 292.711 444.209 292.472C444.41 292.472 444.41 292.472 444.611 292.472C451.649 292.472 458.888 302.253 460.296 313.704C461.302 319.668 460.296 325.155 458.084 328.256Z" fill="white"/>
<path d="M562.048 368.095C558.83 362.37 555.613 356.883 552.395 351.396L557.222 352.35L556.819 337.798C555.814 306.786 555.01 274.58 554.205 242.375L554.004 232.117L545.357 230.924C533.493 229.254 521.226 228.3 509.362 227.823L497.297 227.346L499.106 241.659C500.715 253.826 502.324 265.992 503.933 278.397C491.264 248.816 467.334 228.3 441.796 228.3C440.187 228.3 438.578 228.3 436.97 228.539C419.676 230.209 404.795 240.467 394.741 257.166C393.936 258.597 393.132 260.267 392.327 261.698L378.452 255.496L377.849 255.257L377.447 255.019L376.844 254.78C371.615 252.633 363.572 249.055 353.316 249.055C347.283 249.055 341.251 250.248 335.419 252.633C318.125 259.79 304.049 275.058 296.81 294.619C295 299.868 293.592 305.116 292.587 310.364L285.548 291.28L280.923 278.397L270.869 285.793C261.82 292.472 252.771 299.868 244.124 307.263L237.287 313.227L241.107 322.292L246.939 336.367C241.107 332.789 235.075 329.449 229.243 326.348L223.814 323.485L218.988 327.54C210.341 335.174 201.694 343.285 193.449 351.635L189.226 355.929L187.617 353.066L178.971 363.801C170.927 373.582 163.285 384.079 156.046 394.575L150.818 402.209L156.046 409.843L161.476 417.954C159.867 417.477 158.057 417.238 156.247 417.238C148.204 417.238 135.736 421.771 122.464 443.48C113.415 458.27 104.969 473.538 97.3278 489.521L92.9038 498.587L99.942 505.028C118.844 522.204 137.948 539.38 156.851 556.318L165.095 563.713L171.128 553.693C178.568 541.288 186.612 529.599 195.259 518.387C202.9 508.606 207.123 497.632 208.129 486.897L208.732 487.613L215.77 498.109L223.814 488.806C230.048 481.41 236.683 474.254 243.319 467.574L245.129 465.904L246.738 468.767L255.586 460.656C262.222 454.453 269.059 448.489 276.097 443.002L283.739 436.8L279.114 427.258L275.293 419.147C279.315 422.248 283.538 425.588 287.559 428.928L292.386 432.983L297.614 430.12C305.054 426.065 312.897 422.009 320.538 418.67L330.392 414.137L326.169 402.686L321.544 389.804C331.799 398.869 344.468 405.31 359.55 405.31C363.773 405.31 368.197 404.833 372.419 403.64C385.49 400.301 397.355 393.621 406.605 383.84L411.23 378.83L409.621 371.674C409.219 369.765 408.817 368.095 408.415 366.187C422.29 382.886 440.589 393.86 459.291 395.052C460.296 395.052 461.301 395.052 462.106 395.052C476.383 395.052 489.253 388.373 498.503 375.968C500.916 372.866 502.927 369.288 504.737 365.71L509.965 372.866C516.601 383.124 523.841 393.382 530.074 403.879L537.716 417.238L546.162 404.595C550.988 397.199 556.216 390.043 561.243 382.886L566.271 375.968L562.048 368.095ZM187.818 510.276C178.971 521.727 170.726 533.893 162.883 546.775C143.981 529.599 124.877 512.661 105.975 495.485C113.616 479.979 121.861 464.95 130.508 450.636C139.959 435.13 149.008 429.405 156.247 429.405C160.872 429.405 164.492 431.79 167.307 435.607C172.133 442.287 173.139 451.591 169.921 461.61C173.541 459.224 176.96 458.032 179.976 458.032C185.405 458.032 190.03 461.371 193.248 465.665C201.895 478.309 199.08 495.962 187.818 510.276ZM216.574 480.218C199.08 454.215 181.384 428.212 163.889 402.209C171.128 391.951 178.568 381.932 186.411 372.151C203.101 400.778 219.993 429.643 236.683 458.27C229.846 465.427 223.009 472.584 216.574 480.218ZM293.19 418.67C278.711 406.503 263.831 396.007 248.548 386.703C248.548 386.703 248.347 386.703 248.347 386.941C255.586 402.209 262.825 417.477 270.064 432.983C262.825 438.708 255.787 444.911 248.95 451.113C232.662 421.055 216.373 390.997 200.085 360.938C208.129 352.589 216.574 344.955 225.02 337.321C240.303 345.432 255.385 354.975 270.064 365.948C270.064 365.948 270.266 365.948 270.266 365.71C263.428 349.488 256.793 333.266 249.955 317.044C258.401 309.648 267.249 302.73 276.097 296.051C282.331 313.227 288.565 330.403 295 347.818C295.402 348.772 295.603 349.965 296.005 350.919C296.407 352.112 297.011 353.543 297.413 354.736C303.647 372.151 310.081 389.565 316.315 406.742C308.674 410.559 300.831 414.376 293.19 418.67ZM370.208 391.235C366.387 392.19 362.767 392.667 359.349 392.667C334.816 392.667 315.913 371.912 306.864 349.488L304.652 343.524C294.799 312.034 310.685 275.773 338.837 264.322C344.267 262.175 349.093 261.46 353.517 261.46C362.164 261.46 369.202 264.561 374.028 266.708C374.229 266.708 374.632 266.947 374.833 266.947C371.816 278.875 369.001 290.802 366.387 302.73C362.164 300.106 358.142 299.152 354.321 299.152C351.908 299.152 349.495 299.629 347.685 300.345C335.017 304.877 331.196 320.622 335.821 335.89C338.837 345.909 345.473 356.406 356.936 356.406C358.343 356.406 359.751 356.167 361.158 355.929C361.963 355.69 362.767 355.452 363.572 355.213C364.376 354.975 365.582 354.259 366.387 353.782C365.381 349.965 364.376 346.148 363.37 342.331C358.946 343.762 354.321 344.955 349.897 346.625C348.892 337.083 348.088 327.54 347.283 317.759C359.349 313.465 371.615 309.887 383.882 307.024L399.768 374.536C391.121 383.124 380.664 388.611 370.208 391.235ZM461.905 382.647C461.1 382.647 460.296 382.647 459.693 382.647C436.97 380.977 413.04 361.893 401.175 333.981C398.963 323.723 396.55 313.704 394.338 303.446L393.735 301.06C393.132 270.286 411.029 243.091 437.774 240.467C439.182 240.228 440.388 240.228 441.796 240.228C471.758 240.228 499.106 274.819 502.726 314.897C506.145 355.213 487.845 382.647 461.905 382.647ZM543.95 242.614C544.754 274.58 545.759 306.309 546.564 338.037C537.917 336.367 529.471 335.174 520.824 334.22C516.802 302.492 512.781 271.002 508.759 239.512C520.623 239.99 532.286 240.944 543.95 242.614ZM538.319 396.722C531.884 385.749 525.449 375.013 518.813 364.755C523.841 356.883 528.868 349.249 534.297 341.615C540.933 352.35 547.368 363.324 553.803 374.775C548.374 382.17 543.346 389.327 538.319 396.722Z" fill="white"/>
<path d="M84.8602 336.367L129.502 397.676L116.029 414.137L88.0776 375.729L82.246 389.565L69.9795 382.17L84.8602 336.367Z" fill="#4A8ECC"/>
<path d="M299.223 250.963L256.793 271.479L266.445 221.859C267.45 216.134 267.651 212.555 266.646 209.454C265.439 205.876 262.222 205.16 259.809 206.353C257.195 207.546 255.988 211.124 256.994 214.225C257.798 216.611 259.809 218.281 262.222 218.281L258.401 239.99C251.765 239.274 243.118 235.218 238.896 222.575C233.868 208.023 239.097 192.516 253.776 185.36C267.45 178.68 279.717 184.883 284.945 200.15C288.766 211.124 285.951 221.143 282.934 230.447L281.326 235.218L296.005 228.062L299.223 250.963Z" fill="#EE2D67"/>
<path d="M474.372 142.896C484.226 136.932 492.672 136.217 497.9 136.932C516.4 138.841 520.02 153.154 519.417 161.265C518.813 169.615 514.188 175.34 508.357 177.964C514.791 181.304 519.215 188.222 518.612 197.526C517.607 211.363 507.552 221.382 490.862 219.474C485.633 218.996 477.389 216.849 469.144 209.693L477.992 191.324C481.209 194.425 485.835 197.288 490.661 197.765C496.492 198.48 498.101 194.663 498.101 192.516C498.503 187.268 493.476 186.314 491.063 186.075L485.633 185.598L486.84 167.945L492.47 168.422C497.498 168.899 498.905 165.798 498.905 163.651C499.106 161.742 498.101 158.641 492.873 158.164C489.052 157.687 484.427 159.118 480.405 161.742L474.372 142.896Z" fill="#54B04E"/>
</svg>
